HIERARCHY
ROOT Hips
{
	OFFSET 0.00000 0.00000 0.00000
	CHANNELS 6 Xposition Yposition Zposition Zrotation Yrotation Xrotation 
	JOINT LHipJoint
	{
		OFFSET 0 0 0
		CHANNELS 3 Zrotation Yrotation Xrotation
		JOINT LeftHip
		{
			OFFSET 1.58161 -1.81893 0.78828
			CHANNELS 3 Zrotation Yrotation Xrotation
			JOINT LeftKnee
			{
				OFFSET 2.53374 -6.96141 0.00000
				CHANNELS 3 Zrotation Yrotation Xrotation
				JOINT LeftAnkle
				{
					OFFSET 2.63509 -7.23986 0.00000
					CHANNELS 3 Zrotation Yrotation Xrotation
					JOINT LeftToe
					{
						OFFSET 0.14115 -0.38781 2.05350
						CHANNELS 3 Zrotation Yrotation Xrotation
						End Site
						{
							OFFSET 0.00000 -0.00000 1.05543
						}
					}
				}
			}
		}
	}
	JOINT RHipJoint
	{
		OFFSET 0 0 0
		CHANNELS 3 Zrotation Yrotation Xrotation
		JOINT RightHip
		{
			OFFSET -1.11138 -1.81893 0.78828
			CHANNELS 3 Zrotation Yrotation Xrotation
			JOINT RightKnee
			{
				OFFSET -2.58392 -7.09926 0.00000
				CHANNELS 3 Zrotation Yrotation Xrotation
				JOINT RightAnkle
				{
					OFFSET -2.66423 -7.31992 0.00000
					CHANNELS 3 Zrotation Yrotation Xrotation
					JOINT RightToe
					{
						OFFSET -0.18831 -0.51739 2.12114
						CHANNELS 3 Zrotation Yrotation Xrotation
						End Site
						{
							OFFSET -0.00000 -0.00000 1.09845
						}
					}
				}
			}
		}
	}
	JOINT lowerback
	{
		OFFSET 0 0 0
		CHANNELS 3 Zrotation Yrotation Xrotation
		JOINT Chest
		{
			OFFSET -0.01511 1.97958 -0.08829
			CHANNELS 3 Zrotation Yrotation Xrotation
			JOINT Chest2
			{
				OFFSET 0.08344 1.97334 -0.04330
				CHANNELS 3 Zrotation Yrotation Xrotation
				JOINT lowerneck
				{
					OFFSET 0 0 0
					CHANNELS 3 Zrotation Yrotation Xrotation
					JOINT Neck
					{
						OFFSET 0.00559 1.76246 0.31246
						CHANNELS 3 Zrotation Yrotation Xrotation
						JOINT Head
						{
							OFFSET -0.07011 1.80354 -0.30524
							CHANNELS 3 Zrotation Yrotation Xrotation
							End Site
							{
								OFFSET -0.02385 1.83547 -0.13906
							}
						}
					}
				}
				JOINT LeftCollar
				{
					OFFSET 0 0 0
					CHANNELS 3 Zrotation Yrotation Xrotation
					JOINT LeftShoulder
					{
						OFFSET 3.20667 1.30156 -0.60240
CHANNELS 3 Zrotation Xrotation Yrotation
						JOINT LeftElbow
						{
OFFSET 0 -4.956630 0.000000
CHANNELS 3 Zrotation Xrotation Yrotation
							JOINT LeftWrist
							{
OFFSET 0 -3.381770 0.000000
CHANNELS 3 Zrotation Xrotation Yrotation
								JOINT lhand
								{
									OFFSET 0 0 0
CHANNELS 3 Zrotation Xrotation Yrotation
									JOINT LFingers
									{
OFFSET 0 -0.662910 0.000000
CHANNELS 3 Zrotation Xrotation Yrotation
										End Site
										{
OFFSET 0 -0.534450 0.000000
										}
									}
								}
								JOINT LThumb
								{
OFFSET 0 0.000000 0.000000
CHANNELS 3 Zrotation Xrotation Yrotation
									End Site
									{
OFFSET 0 -0.542610 0.542610
									}
								}
							}
						}
					}
				}
				JOINT RightCollar
				{
					OFFSET 0 0 0
					CHANNELS 3 Zrotation Yrotation Xrotation
					JOINT RightShoulder
					{
						OFFSET -3.06877 1.34672 -0.60964
CHANNELS 3 Zrotation Xrotation Yrotation
						JOINT RightElbow
						{
OFFSET 0 -5.083650 0.000000
CHANNELS 3 Zrotation Xrotation Yrotation
							JOINT RightWrist
							{
OFFSET 0 -3.359840 0.000000
CHANNELS 3 Zrotation Xrotation Yrotation
								JOINT rhand
								{
									OFFSET 0 0 0
CHANNELS 3 Zrotation Xrotation Yrotation
									JOINT RFingers
									{
OFFSET 0 -0.820760 0.000000
CHANNELS 3 Zrotation Xrotation Yrotation
										End Site
										{
OFFSET 0 -0.661720 0.000000
										}
									}
								}
								JOINT RThumb
								{
OFFSET 0 0.000000 0.000000
CHANNELS 3 Zrotation Xrotation Yrotation
									End Site
									{
OFFSET 0 -0.671820 0.671820
									}
								}
							}
						}
					}
				}
			}
		}
	}
}
MOTION
Frames: 8
Frame Time: 0.008333333333333333
-7.288346 17.707630 5.439287 -7.469645 30.338709 1.636710 0.000000 0.000000 0.000000 7.654572 16.873436 -4.306542 4.223667 12.452315 37.351323 0.342597 17.378021 15.263592 2.104952 -9.081363 -26.050223 0.000000 0.000000 0.000000 26.610562 26.191630 -19.416650 -3.261666 -11.107106 32.641973 3.149456 29.607515 14.113627 -4.775032 -13.125873 39.841665 -18.829595 -10.258174 2.372306 -5.251960 -14.143566 -1.741508 4.447274 -6.760712 -0.138271 1.101024 23.123083 -4.445773 -13.390022 32.999162 10.201597 -1.489723 15.239695 6.302649 0.000000 0.000000 0.000000 252.193476 -41.882387 172.342316 22.496134 -33.533220 6.857971 21.697099 -4.736644 1.576271 0.000000 0.000000 0.000000 -7.125000 0.000000 0.000000 7.030429 -61.685737 -177.137529 0.000000 0.000000 0.000000 -67.026741 -43.146427 -31.619048 -124.183793 -55.087937 -89.115759 -67.429147 -21.670204 -11.536226 0.000000 0.000000 0.000000 7.125000 0.000000 0.000000 -25.062501 4.002120 -25.921565
-7.289757 17.709329 5.436766 -7.356624 30.260846 1.711930 0.000000 0.000000 0.000000 7.629179 16.980395 -4.359200 4.240125 12.473359 37.427635 0.392223 17.000710 15.471561 2.147289 -9.166260 -26.316951 0.000000 0.000000 0.000000 26.493443 26.255053 -19.420105 -3.255066 -11.097018 32.607754 3.128998 29.535685 14.279157 -4.819537 -13.177614 40.036926 -18.863484 -10.223378 2.480952 -5.290641 -14.127537 -1.750686 4.449557 -6.745551 -0.214954 1.110025 23.156589 -4.411607 -13.432904 33.038270 10.146534 -1.503025 15.261516 6.291494 0.000000 0.000000 0.000000 251.863348 -41.676982 172.049094 22.507767 -33.546072 6.864296 21.884158 -4.562776 1.548340 0.000000 0.000000 0.000000 -7.125000 0.000000 0.000000 6.754591 -61.659778 -177.254462 0.000000 0.000000 0.000000 -67.626570 -42.957260 -32.125495 -124.164236 -55.094153 -89.099765 -67.437401 -21.029379 -11.249023 0.000000 0.000000 0.000000 7.125000 0.000000 0.000000 -25.159484 4.557005 -25.759924
-7.290741 17.710510 5.431620 -7.310550 30.188869 1.780907 0.000000 0.000000 0.000000 7.674760 17.164745 -4.478594 4.259301 12.497713 37.516259 0.467657 16.475858 15.826932 2.190136 -9.251383 -26.584825 0.000000 0.000000 0.000000 26.419100 26.302965 -19.470211 -3.249015 -11.087670 32.576113 3.125317 29.534842 14.489070 -4.836789 -13.197609 40.112622 -18.825387 -10.191192 2.567253 -5.315972 -14.105622 -1.741840 4.426225 -6.731463 -0.272795 1.081703 23.179032 -4.463901 -13.464025 33.061332 10.074461 -1.503543 15.272214 6.279378 0.000000 0.000000 0.000000 251.580424 -41.471817 171.879911 22.547993 -33.590769 6.886592 21.871300 -4.470788 1.512217 0.000000 0.000000 0.000000 -7.125000 0.000000 0.000000 6.763396 -61.620704 -177.257181 0.000000 0.000000 0.000000 -68.196990 -42.780353 -32.644572 -124.198212 -55.083273 -89.127549 -67.377282 -20.411467 -10.961289 0.000000 0.000000 0.000000 7.125000 0.000000 0.000000 -25.224175 5.172759 -25.519992
-7.291678 17.711867 5.425021 -7.327261 30.170187 1.855437 0.000000 0.000000 0.000000 7.749382 17.275196 -4.659427 4.280493 12.524539 37.613809 0.546482 15.929269 16.215222 2.249135 -9.366702 -26.949321 0.000000 0.000000 0.000000 26.379216 26.290340 -19.591471 -3.242165 -11.077153 32.540615 3.140404 29.605161 14.636515 -4.815706 -13.173171 40.020353 -18.752796 -10.177631 2.628156 -5.307786 -14.102189 -1.739767 4.414565 -6.728011 -0.318842 1.042203 23.190380 -4.516254 -13.494851 33.069723 10.001841 -1.505189 15.275978 6.264230 0.000000 0.000000 0.000000 251.311214 -41.361249 171.628457 22.614292 -33.664271 6.923297 22.140799 -4.385072 1.502032 0.000000 0.000000 0.000000 -7.125000 0.000000 0.000000 6.374683 -61.616389 -177.416149 0.000000 0.000000 0.000000 -68.752410 -42.619358 -33.160369 -124.181194 -55.088724 -89.113651 -67.320367 -19.967019 -10.762064 0.000000 0.000000 0.000000 7.125000 0.000000 0.000000 -25.262118 5.612624 -25.335066
-7.293758 17.713915 5.418184 -7.333185 30.197810 1.936135 0.000000 0.000000 0.000000 7.797038 17.292613 -4.850091 4.303535 12.553722 37.720042 0.584421 15.615767 16.383840 2.245608 -9.359845 -26.927648 0.000000 0.000000 0.000000 26.320183 26.258420 -19.711930 -3.233355 -11.063596 32.494773 3.168594 29.719360 14.670201 -4.778847 -13.130245 39.858170 -18.737087 -10.179301 2.701949 -5.284293 -14.123879 -1.748489 4.445511 -6.735417 -0.362311 1.047791 23.216965 -4.569357 -13.474905 33.119116 10.075445 -1.483407 15.291748 6.297298 0.000000 0.000000 0.000000 251.021439 -41.311876 171.267672 22.651750 -33.705836 6.944104 22.537721 -4.241345 1.441880 0.000000 0.000000 0.000000 -7.125000 0.000000 0.000000 5.792143 -61.560795 -177.660566 0.000000 0.000000 0.000000 -69.262126 -42.486582 -33.596290 -124.096946 -55.115551 -89.044507 -67.345984 -19.931635 -10.688876 0.000000 0.000000 0.000000 7.125000 0.000000 0.000000 -25.299295 5.737467 -25.315236
-7.296649 17.716097 5.412193 -7.343578 30.248144 1.994926 0.000000 0.000000 0.000000 7.862575 17.274618 -5.027509 4.330949 12.588257 37.846075 0.575758 15.602690 16.306411 2.120974 -9.111470 -26.146223 0.000000 0.000000 0.000000 26.275970 26.240773 -19.785388 -3.219041 -11.041425 32.419805 3.180639 29.765043 14.643003 -4.759898 -13.108127 39.774629 -18.752980 -10.182072 2.792380 -5.251103 -14.150210 -1.748354 4.502258 -6.745792 -0.394967 1.099932 23.229565 -4.626363 -13.464977 33.165515 10.227984 -1.461413 15.299688 6.365324 0.000000 0.000000 0.000000 250.715100 -41.231199 170.934863 22.641639 -33.694621 6.938478 22.664249 -4.224003 1.444474 0.000000 0.000000 0.000000 -7.125000 0.000000 0.000000 5.610555 -61.566166 -177.733715 0.000000 0.000000 0.000000 -69.755610 -42.363794 -33.969894 -123.955316 -55.160363 -88.928274 -67.543118 -20.784676 -10.896411 0.000000 0.000000 0.000000 7.125000 0.000000 0.000000 -25.327863 5.165177 -25.654937
-7.298975 17.717546 5.404870 -7.379681 30.310875 2.031746 0.000000 0.000000 0.000000 7.958727 17.273698 -5.238705 4.366364 12.632575 38.008317 0.591329 15.427561 16.358296 2.084368 -9.039476 -25.919020 0.000000 0.000000 0.000000 26.258851 26.171201 -19.854457 -3.195858 -11.005456 32.298337 3.171540 29.734335 14.714502 -4.758903 -13.106973 39.770288 -18.732164 -10.176941 2.894833 -5.235661 -14.168926 -1.751336 4.528362 -6.750875 -0.452000 1.219740 23.198133 -4.559013 -13.518799 33.133793 10.284482 -1.489600 15.283482 6.398660 0.000000 0.000000 0.000000 250.500911 -41.140953 170.723156 22.638617 -33.691222 6.936761 22.568995 -4.298219 1.398384 0.000000 0.000000 0.000000 -7.125000 0.000000 0.000000 5.736853 -61.514167 -177.689676 0.000000 0.000000 0.000000 -70.128457 -42.224906 -34.263210 -123.778647 -55.215887 -88.783226 -67.757794 -21.715935 -11.121580 0.000000 0.000000 0.000000 7.125000 0.000000 0.000000 -25.359583 4.540689 -26.024895
-7.299905 17.717109 5.393389 -7.410121 30.384171 2.064925 0.000000 0.000000 0.000000 8.048518 17.336868 -5.525210 4.412746 12.690218 38.219877 0.662341 14.850735 16.704800 2.224888 -9.315986 -26.791515 0.000000 0.000000 0.000000 26.229537 26.019158 -19.938085 -3.163089 -10.954347 32.126193 3.166926 29.727623 14.870186 -4.735690 -13.079740 39.667830 -18.680285 -10.156754 3.014927 -5.250498 -14.171259 -1.751602 4.514993 -6.746406 -0.533923 1.375668 23.143495 -4.385106 -13.610193 33.043742 10.212725 -1.557390 15.255359 6.381451 0.000000 0.000000 0.000000 250.420739 -41.042415 170.691370 22.641775 -33.694718 6.938509 22.430688 -4.235136 1.219382 0.000000 0.000000 0.000000 -7.125000 0.000000 0.000000 5.895908 -61.318692 -177.652765 0.000000 0.000000 0.000000 -70.370592 -42.070394 -34.508272 -123.581604 -55.277346 -88.621348 -67.895247 -22.296991 -11.218230 0.000000 0.000000 0.000000 7.125000 0.000000 0.000000 -25.395787 4.232880 -26.232712
